<?xml version="1.0" encoding="UTF-8"?>
<svg id="_레이어_1" data-name="레이어 1" xmlns="http://www.w3.org/2000/svg" viewBox="0 0 10 10">
  <defs>
    <style>
      .cls-1 {
        fill: #afafaf;
      }

      .cls-2 {
        fill: #1833da;
      }
    </style>
  </defs>
  <g>
    <path class="cls-1" d="M2.15,4.48c-.17-.02-.33-.17-.38-.38-.09-.38.13-.59.4-.67.02-.33.05-.64.13-.96.16-.68.54-1.39,1.02-1.79.13-.11.29-.19.41-.29.2-.18.19-.31.48-.36.24-.05.75-.04.98.05.21.08.4.3.59.43.08.06.16.11.23.17.69.58,1.14,1.59,1.19,2.61.13.07.26.1.37.21.21.21.25.57.03.8-.18.19-.43.17-.65.18.01.05.02.18.06.19l.66.13c0,.27.03.58,0,.85,0,.09-.01.09-.08.11-.2.06-.47.06-.65.13-.06.03-.09.19-.12.26-.07.17-.14.33-.22.5,0,.07.27.56.31.7,0,.03.02.06,0,.09-.09.08-.43.48-.51.49-.03,0-.05,0-.07-.03-.09-.07-.2-.22-.29-.3-.03-.03-.13-.13-.16-.13l-.39.21-.26.11s-.1.6-.14.72c-.01.04-.03.07-.07.08-.19-.02-.4.02-.59,0-.06,0-.08-.01-.1-.08-.04-.13-.08-.63-.12-.7-.23-.1-.47-.18-.68-.33-.02,0-.03,0-.05.02-.13.08-.29.3-.43.4-.02.01-.04.03-.06.02-.05,0-.23-.19-.28-.24-.04-.04-.26-.27-.26-.3-.01-.06.3-.61.31-.73-.1-.24-.23-.46-.3-.72-.02-.04-.14-.06-.19-.07-.09-.02-.48-.07-.53-.12-.01-.01-.02-.02-.02-.04v-.88s.05-.03.05-.03l.58-.12.02-.2c-.08,0-.16.01-.23,0ZM5.95,2.39c-.05-.85-.29-2.11-1.18-2.04.46.52.62,1.3.69,2.04h.01s.09.01.13.02c.11,0,.23,0,.34-.02ZM5.92.98c.05.14.1.27.14.41.05.18.08.41.1.6.01.12.04.39.03.49,0,.08-.05.17-.11.19-.03.02-.16.03-.2.03-.15,0-.31.02-.46.02-.09,0-.18-.06-.2-.16s-.03-.33-.05-.47c-.07-.5-.29-1.07-.62-1.38-.25-.23-.48-.15-.74-.01-.69.36-1.17,1.28-1.32,2.16-.01.06-.07.46-.05.48,0,.02.02.02.04.02.96-.29,1.93-.36,2.91-.33.48.02.97.04,1.45.15.04.01.09.03.13.04-.06-.89-.45-1.73-1.03-2.25ZM2.02,3.88c-.06.09-.03.2.07.19.97-.33,2.01-.36,3.01-.35.67,0,1.51.02,2.14.27.08.03.18.14.25.03.13-.2-.17-.35-.28-.4-.29-.13-.67-.19-.98-.23-1.1-.14-2.28-.08-3.37.17-.18.04-.73.16-.84.31ZM3.62,4.14c-.18.34-.27.76-.22,1.17.16,1.45,1.68,1.88,2.37.7.32-.54.3-1.33-.02-1.87h-2.13Z"/>
    <path class="cls-1" d="M2.28,6.87v.47l-.87,1.08c.17.47-.03.97-.47.99-.74.04-.75-1.42.06-1.32.06,0,.19.08.22.06l1.01-1.25.04-.02Z"/>
    <path class="cls-1" d="M1.88,2.59l-.93-1.11s-.17.07-.21.07C.31,1.61,0,1.09.17.6.43-.1,1.28.18,1.21.98c0,.08-.06.19-.04.25l.82,1.01-.1.35Z"/>
    <path class="cls-1" d="M6.96,7.92l.03.02.62.77s.13-.03.18-.04c.48-.06.8.47.56,1-.28.62-1.06.34-1.01-.43,0-.1.04-.19.06-.29l-.58-.72.13-.3Z"/>
    <path class="cls-1" d="M8.79,4.42h-.83l-.02-.02v-.31l.02-.02h.81c.05-.16.1-.29.22-.39.26-.24.69-.12.82.26.3.88-.75,1.37-1.01.49Z"/>
  </g>
  <g>
    <g>
      <path class="cls-2" d="M0,6.77v-.47h.14c.12,0,.19.09.19.24s-.07.24-.19.24h-.14ZM.13,6.68c.07,0,.11-.05.11-.15s-.04-.15-.11-.15h-.05v.3h.05Z"/>
      <path class="cls-2" d="M.48,6.56s.06,0,.07,0v-.03s-.02-.05-.05-.05c-.03,0-.04.02-.05.04h-.08c0-.06.05-.11.13-.11.06,0,.12.03.12.12v.24h-.07v-.05h0s-.04.06-.08.06c-.06,0-.1-.04-.1-.11,0-.08.05-.11.11-.11ZM.49,6.71s.06-.03.06-.07v-.03s-.05,0-.06,0c-.03,0-.04.02-.04.05s.02.04.04.04Z"/>
      <path class="cls-2" d="M.84,6.48h-.05v.17s.01.04.03.04c0,0,.02,0,.03,0v.08s-.02,0-.04,0c-.06,0-.1-.03-.1-.1v-.19h-.04v-.07h.04v-.09h.08v.09h.05v.07Z"/>
      <path class="cls-2" d="M.98,6.56s.06,0,.07,0v-.03s-.02-.05-.05-.05c-.03,0-.04.02-.05.04h-.08c0-.06.05-.11.13-.11.06,0,.12.03.12.12v.24h-.07v-.05h0s-.04.06-.08.06c-.06,0-.1-.04-.1-.11,0-.08.05-.11.11-.11ZM.99,6.71s.06-.03.06-.07v-.03s-.05,0-.06,0c-.03,0-.04.02-.04.05s.02.04.04.04Z"/>
      <path class="cls-2" d="M1.37,6.61h-.18v-.08h.18v.08Z"/>
      <path class="cls-2" d="M1.44,6.29h.08v.18h0s.03-.06.08-.06c.06,0,.12.06.12.18s-.05.18-.12.18c-.05,0-.07-.03-.08-.06h0v.06h-.08v-.47ZM1.58,6.69s.06-.04.06-.11-.02-.1-.06-.1-.06.04-.06.1.02.11.06.11Z"/>
      <path class="cls-2" d="M1.87,6.56s.06,0,.07,0v-.03s-.02-.05-.05-.05c-.03,0-.04.02-.05.04h-.08c0-.06.05-.11.13-.11.06,0,.12.03.12.12v.24h-.07v-.05h0s-.04.06-.08.06c-.06,0-.1-.04-.1-.11,0-.08.05-.11.11-.11ZM1.88,6.71s.06-.03.06-.07v-.03s-.05,0-.06,0c-.03,0-.04.02-.04.05s.02.04.04.04Z"/>
      <path class="cls-2" d="M2.2,6.48s-.05.02-.04.04c0,.02.01.03.04.04h.05c.06.03.08.06.08.11,0,.07-.05.12-.13.12s-.12-.04-.13-.11h.08s.02.04.05.04.05-.01.05-.04c0-.02-.01-.03-.04-.04h-.05c-.05-.02-.08-.06-.08-.11,0-.07.05-.11.12-.11s.12.04.12.11h-.07s-.02-.04-.05-.04Z"/>
      <path class="cls-2" d="M2.36,6.59c0-.11.05-.18.14-.18.08,0,.14.06.14.18v.03h-.2c0,.05.03.09.07.09.03,0,.05-.01.05-.04h.08c-.01.07-.06.11-.13.11-.09,0-.14-.07-.14-.18ZM2.56,6.55s-.02-.07-.06-.07-.06.03-.06.07h.12Z"/>
      <path class="cls-2" d="M2.68,6.59c0-.12.05-.18.12-.18.05,0,.07.04.08.06h0v-.18h.08v.47h-.08v-.06h0s-.04.06-.08.06c-.07,0-.12-.06-.12-.18ZM2.88,6.59c0-.06-.02-.1-.06-.1s-.06.04-.06.1.02.11.06.11.06-.04.06-.11Z"/>
      <path class="cls-2" d="M3.32,6.37c-.06,0-.1.06-.1.16s.04.16.1.16c.04,0,.08-.03.08-.08h.08c0,.09-.07.17-.17.17-.1,0-.18-.09-.18-.24s.08-.24.18-.24c.09,0,.16.06.17.17h-.08c0-.05-.04-.08-.08-.08Z"/>
      <path class="cls-2" d="M3.53,6.59c0-.11.05-.18.14-.18s.14.07.14.18-.05.18-.14.18-.14-.07-.14-.18ZM3.74,6.59c0-.06-.02-.11-.06-.11s-.06.05-.06.11.02.11.06.11.06-.05.06-.11Z"/>
      <path class="cls-2" d="M3.95,6.77h-.08v-.36h.08v.06h0s.04-.07.09-.07c.06,0,.1.05.1.13v.23h-.08v-.21s-.02-.07-.05-.07-.06.03-.06.07v.21Z"/>
      <path class="cls-2" d="M4.31,6.48s-.05.02-.04.04c0,.02.01.03.04.04h.05c.06.03.08.06.08.11,0,.07-.05.12-.13.12s-.12-.04-.13-.11h.08s.02.04.05.04.05-.01.05-.04c0-.02-.01-.03-.04-.04h-.05c-.05-.02-.08-.06-.08-.11,0-.07.05-.11.12-.11s.12.04.12.11h-.07s-.02-.04-.05-.04Z"/>
      <path class="cls-2" d="M4.64,6.48h-.05v.17s.01.04.03.04c0,0,.02,0,.03,0v.08s-.02,0-.04,0c-.06,0-.1-.03-.1-.1v-.19h-.04v-.07h.04v-.09h.08v.09h.05v.07Z"/>
      <path class="cls-2" d="M4.69,6.41h.08v.06h0s.04-.07.07-.07c0,0,.02,0,.03,0v.09s-.02,0-.03,0c-.04,0-.06.03-.06.07v.2h-.08v-.36Z"/>
      <path class="cls-2" d="M5.09,6.41h.08v.36h-.08v-.06h0s-.04.07-.09.07c-.06,0-.1-.05-.1-.13v-.23h.08v.21s.02.07.05.07c.03,0,.06-.03.06-.07v-.2Z"/>
      <path class="cls-2" d="M5.22,6.59c0-.11.05-.18.14-.18.07,0,.13.05.13.13h-.07s-.02-.06-.05-.06c-.04,0-.06.04-.06.11s.02.11.06.11c.03,0,.05-.02.05-.06h.07c0,.08-.05.14-.13.14-.09,0-.14-.08-.14-.18Z"/>
      <path class="cls-2" d="M5.69,6.48h-.05v.17s.01.04.03.04c0,0,.02,0,.03,0v.08s-.02,0-.04,0c-.06,0-.1-.03-.1-.1v-.19h-.04v-.07h.04v-.09h.08v.09h.05v.07Z"/>
      <path class="cls-2" d="M5.74,6.32s.02-.05.04-.05.04.02.04.05-.02.05-.04.05-.04-.02-.04-.05ZM5.74,6.41h.08v.36h-.08v-.36Z"/>
      <path class="cls-2" d="M5.87,6.59c0-.11.05-.18.14-.18s.14.07.14.18-.06.18-.14.18-.14-.07-.14-.18ZM6.07,6.59c0-.06-.02-.11-.06-.11s-.06.05-.06.11.02.11.06.11.06-.05.06-.11Z"/>
      <path class="cls-2" d="M6.28,6.77h-.08v-.36h.08v.06h0s.04-.07.09-.07c.06,0,.1.05.1.13v.23h-.08v-.21s-.02-.07-.05-.07-.06.03-.06.07v.21Z"/>
      <path class="cls-2" d="M6.76,6.29l.11.32h0l.11-.32h.1v.47h-.08v-.31h0l-.1.31h-.05l-.1-.31h0v.31h-.08v-.47h.1Z"/>
      <path class="cls-2" d="M7.23,6.56s.06,0,.07,0v-.03s-.02-.05-.05-.05c-.03,0-.04.02-.05.04h-.08c0-.06.05-.11.13-.11.06,0,.12.03.12.12v.24h-.07v-.05h0s-.04.06-.08.06c-.06,0-.1-.04-.1-.11,0-.08.05-.11.11-.11ZM7.24,6.71s.06-.03.06-.07v-.03s-.05,0-.06,0c-.03,0-.04.02-.04.05s.02.04.04.04Z"/>
      <path class="cls-2" d="M7.52,6.77h-.08v-.36h.08v.06h0s.04-.07.09-.07c.06,0,.1.05.1.13v.23h-.08v-.21s-.02-.07-.05-.07-.06.03-.06.07v.21Z"/>
      <path class="cls-2" d="M7.86,6.56s.06,0,.07,0v-.03s-.02-.05-.05-.05c-.03,0-.04.02-.05.04h-.08c0-.06.05-.11.13-.11.06,0,.12.03.12.12v.24h-.07v-.05h0s-.04.06-.08.06c-.06,0-.1-.04-.1-.11,0-.08.05-.11.11-.11ZM7.88,6.71s.06-.03.06-.07v-.03s-.05,0-.06,0c-.03,0-.04.02-.04.05s.02.04.04.04Z"/>
      <path class="cls-2" d="M8.07,6.8h.08s.03.04.06.04c.04,0,.06-.02.06-.07v-.06h0s-.04.06-.08.06c-.07,0-.12-.06-.12-.17s.05-.18.12-.18c.05,0,.07.04.08.06h0v-.06h.08v.36c0,.09-.06.14-.14.14s-.13-.04-.13-.11ZM8.27,6.59c0-.06-.02-.1-.06-.1s-.06.04-.06.1.02.1.06.1.06-.04.06-.1Z"/>
      <path class="cls-2" d="M8.4,6.59c0-.11.05-.18.14-.18.08,0,.14.06.14.18v.03h-.2c0,.05.03.09.07.09.03,0,.05-.01.05-.04h.08c-.01.07-.06.11-.13.11-.09,0-.14-.07-.14-.18ZM8.6,6.55s-.02-.07-.06-.07-.06.03-.06.07h.12Z"/>
      <path class="cls-2" d="M8.72,6.41h.08v.06h0s.04-.07.08-.07.07.03.08.07h0s.04-.07.09-.07c.05,0,.09.04.09.12v.24h-.08v-.22s-.02-.06-.05-.06c-.03,0-.05.03-.05.06v.22h-.08v-.22s-.02-.06-.04-.06-.05.03-.05.07v.21h-.08v-.36Z"/>
      <path class="cls-2" d="M9.19,6.59c0-.11.05-.18.14-.18.08,0,.14.06.14.18v.03h-.2c0,.05.03.09.07.09.03,0,.05-.01.05-.04h.08c-.01.07-.06.11-.13.11-.09,0-.14-.07-.14-.18ZM9.39,6.55s-.02-.07-.06-.07-.06.03-.06.07h.12Z"/>
      <path class="cls-2" d="M9.6,6.77h-.08v-.36h.08v.06h0s.04-.07.09-.07c.06,0,.1.05.1.13v.23h-.08v-.21s-.02-.07-.05-.07-.06.03-.06.07v.21Z"/>
      <path class="cls-2" d="M10,6.48h-.05v.17s.01.04.03.04c0,0,.02,0,.03,0v.08s-.02,0-.04,0c-.06,0-.1-.03-.1-.1v-.19h-.04v-.07h.04v-.09h.08v.09h.05v.07Z"/>
    </g>
    <g>
      <path class="cls-2" d="M.44,5.87v-1.86h.91c.4,0,.69.09.89.28.2.19.3.4.3.64,0,.28-.11.5-.32.68-.21.17-.49.26-.82.26H.44ZM1.16,5.44h.19c.12,0,.22-.05.3-.14.08-.09.12-.22.12-.38,0-.14-.04-.25-.11-.35-.07-.1-.18-.15-.32-.15h-.19v1.01Z"/>
      <path class="cls-2" d="M2.72,5.87v-1.86h1.2c.25,0,.43.05.55.15.11.1.17.21.17.34,0,.09-.03.18-.1.25-.07.08-.17.13-.3.15.31.06.46.2.46.43,0,.14-.05.26-.16.37-.11.11-.34.16-.69.16h-1.12ZM3.39,4.72h.34c.08,0,.14-.02.18-.05.03-.03.05-.07.05-.11,0-.1-.08-.16-.24-.16h-.32v.31ZM3.39,5.46h.35c.09,0,.15-.02.19-.05.04-.03.06-.07.06-.12s-.02-.08-.06-.12c-.04-.04-.11-.05-.22-.05h-.33v.34Z"/>
      <path class="cls-2" d="M6.17,5.12h.66c-.03.23-.14.48-.32.6-.18.12-.41.18-.67.18-.32,0-.58-.08-.78-.25-.2-.17-.3-.4-.3-.69s.09-.53.28-.71c.19-.18.45-.27.78-.27.31,0,.55.07.72.2.17.14.26.4.28.63h-.67c0-.14-.03-.23-.09-.28-.06-.06-.13-.08-.21-.08-.23,0-.34.14-.34.5,0,.2.03.3.09.37.06.07.14.11.25.11.19,0,.3-.1.32-.31Z"/>
      <path class="cls-2" d="M9.55,4.01v1.86h-.67v-1.33l-.44,1.33h-.46l-.45-1.33v1.33h-.54v-1.86h.95l.34.99.33-.99h.95Z"/>
    </g>
  </g>
</svg>